<svg xmlns="http://www.w3.org/2000/svg" viewBox="0 0 24 24" fill="currentColor">
  <path d="M5.5 11l1.2-3.1A3 3 0 0 1 9.54 6h4.92a3 3 0 0 1 2.84 1.9L18.5 11H20a1 1 0 1 1 0 2h-1v3a2 2 0 0 1-2 2h-1a2 2 0 0 1-2-2v-1H10v1a2 2 0 0 1-2 2H7a2 2 0 0 1-2-2v-3H4a1 1 0 1 1 0-2h1.5Zm2.27-2.62L6.96 11h10.08l-.81-2.12A1.5 1.5 0 0 0 14.46 8H9.54a1.5 1.5 0 0 0-1.77 0ZM7.5 16.5A1.5 1.5 0 1 0 7.5 13a1.5 1.5 0 0 0 0 3Zm9 0A1.5 1.5 0 1 0 16.5 13a1.5 1.5 0 0 0 0 3ZM7 12.75a.75.75 0 0 1 0-1.5h2a.75.75 0 0 1 0 1.5H7Zm8 0a.75.75 0 0 1 0-1.5h2a.75.75 0 0 1 0 1.5h-2Z"/>
</svg>

